<svg width="136" height="42" viewBox="0 0 136 42" fill="none" xmlns="http://www.w3.org/2000/svg">
<path d="M20.6412 19.371C20.2622 19.7523 19.972 20.2125 19.7912 20.7187C19.6104 21.225 19.5435 21.7649 19.5952 22.3L19.5772 22.282C19.6304 22.9119 19.5454 23.5457 19.3283 24.1394C19.1112 24.733 18.7672 25.2721 18.3203 25.7191C17.8733 26.166 17.3342 26.5101 16.7405 26.7271C16.1469 26.9442 15.513 27.0292 14.8832 26.976L14.9012 26.994C14.1478 26.9239 13.3911 27.0878 12.7342 27.4635C12.0774 27.8392 11.5524 28.4083 11.2309 29.0933C10.9094 29.7783 10.8069 30.5457 10.9375 31.2911C11.0682 32.0364 11.4255 32.7233 11.9608 33.2581C12.4961 33.7929 13.1833 34.1496 13.9287 34.2795C14.6742 34.4095 15.4415 34.3063 16.1262 33.9842C16.8109 33.662 17.3795 33.1366 17.7546 32.4794C18.1297 31.8222 18.293 31.0654 18.2222 30.312L18.2412 30.33C18.188 29.7002 18.2729 29.0663 18.49 28.4726C18.7071 27.879 19.0512 27.3399 19.4981 26.8929C19.9451 26.446 20.4842 26.1019 21.0778 25.8849C21.6715 25.6678 22.3053 25.5828 22.9352 25.636L22.9162 25.618C23.5316 25.6733 24.1511 25.5724 24.7172 25.3246C25.2832 25.0768 25.7776 24.6901 26.1544 24.2004C26.5312 23.7107 26.7784 23.1337 26.8728 22.5231C26.9673 21.9124 26.9061 21.2878 26.6949 20.707C26.4837 20.1263 26.1293 19.6083 25.6646 19.201C25.1999 18.7937 24.6399 18.5103 24.0365 18.3771C23.4331 18.2439 22.8058 18.2651 22.2128 18.4388C21.6198 18.6126 21.0803 18.9332 20.6442 19.371H20.6412Z" fill="#1F74B7"/>
<path d="M13.2643 24.636L13.2453 24.618C13.7806 24.6719 14.3213 24.6062 14.8281 24.4256C15.3349 24.245 15.7953 23.9541 16.1759 23.5738C16.5565 23.1935 16.8478 22.7333 17.0288 22.2266C17.2097 21.7199 17.2759 21.1794 17.2223 20.644L17.2413 20.662C17.1881 20.0321 17.2731 19.3983 17.4902 18.8046C17.7073 18.211 18.0513 17.6719 18.4982 17.2249C18.9452 16.778 19.4843 16.4339 20.078 16.2169C20.6716 15.9998 21.3055 15.9148 21.9353 15.968L21.9163 15.95C22.6698 16.0208 23.4268 15.8574 24.084 15.4821C24.7412 15.1068 25.2666 14.538 25.5886 13.8531C25.9107 13.1682 26.0136 12.4007 25.8833 11.6552C25.7531 10.9097 25.3961 10.2225 24.8609 9.68738C24.3258 9.15224 23.6386 8.79521 22.8931 8.66498C22.1476 8.53475 21.3801 8.63766 20.6952 8.95968C20.0103 9.2817 19.4415 9.80714 19.0662 10.4643C18.691 11.1216 18.5276 11.8785 18.5983 12.632L18.5803 12.613C18.6337 13.2429 18.5489 13.8768 18.3318 14.4706C18.1148 15.0643 17.7708 15.6035 17.3238 16.0505C16.8768 16.4975 16.3376 16.8415 15.7439 17.0585C15.1501 17.2755 14.5162 17.3603 13.8863 17.307L13.9043 17.326C13.369 17.2721 12.8284 17.3378 12.3215 17.5184C11.8147 17.699 11.3544 17.9899 10.9738 18.3702C10.5932 18.7505 10.3018 19.2107 10.1209 19.7174C9.93989 20.2241 9.87378 20.7646 9.92732 21.3L9.90932 21.282C9.96231 21.9118 9.87726 22.5456 9.66011 23.1392C9.44295 23.7327 9.09891 24.2718 8.652 24.7187C8.20508 25.1656 7.66604 25.5096 7.07248 25.7268C6.47892 25.9439 5.84513 26.029 5.21532 25.976L5.23332 25.994C4.47984 25.9232 3.72287 26.0866 3.06567 26.4619C2.40846 26.8372 1.88301 27.406 1.561 28.0909C1.23898 28.7758 1.13606 29.5433 1.26629 30.2888C1.39652 31.0343 1.75356 31.7215 2.28869 32.2566C2.82383 32.7918 3.51101 33.1488 4.25652 33.279C5.00203 33.4093 5.76956 33.3063 6.45443 32.9843C7.1393 32.6623 7.70816 32.1369 8.08342 31.4797C8.45868 30.8224 8.62208 30.0655 8.55132 29.312L8.57032 29.33C8.51715 28.7002 8.60208 28.0663 8.81917 27.4726C9.03626 26.879 9.38029 26.3399 9.82725 25.8929C10.2742 25.446 10.8133 25.1019 11.407 24.8849C12.0006 24.6678 12.6345 24.5828 13.2643 24.636Z" fill="#1F74B7"/>
<path d="M6.56213 22.629C6.94115 22.2478 7.23134 21.7876 7.41198 21.2813C7.59262 20.775 7.65926 20.235 7.60713 19.7L7.62613 19.718C7.57292 19.088 7.65789 18.4539 7.8751 17.8601C8.09231 17.2663 8.43652 16.7271 8.88371 16.2801C9.33089 15.8331 9.87026 15.4891 10.4641 15.2722C11.058 15.0552 11.6921 14.9705 12.3221 15.024L12.3031 15.006C13.0564 15.0766 13.813 14.9131 14.4699 14.5378C15.1268 14.1626 15.652 13.5939 15.9738 12.9092C16.2956 12.2246 16.3984 11.4573 16.2682 10.7121C16.138 9.96686 15.7811 9.27994 15.2461 8.745C14.7112 8.21006 14.0243 7.85314 13.279 7.72291C12.5338 7.59269 11.7666 7.6955 11.0819 8.01732C10.3973 8.33915 9.82853 8.86432 9.45329 9.52122C9.07805 10.1781 8.91457 10.9348 8.98513 11.688L8.96713 11.67C9.0203 12.2998 8.93537 12.9337 8.71828 13.5274C8.50119 14.121 8.15716 14.6601 7.7102 15.1071C7.26324 15.554 6.72413 15.8981 6.13049 16.1151C5.53685 16.3322 4.90298 16.4172 4.27313 16.364L4.29113 16.382C3.6757 16.3268 3.0563 16.4279 2.49032 16.6758C1.92434 16.9237 1.43009 17.3105 1.05338 17.8003C0.676671 18.29 0.429684 18.867 0.335309 19.4776C0.240933 20.0883 0.302223 20.7129 0.513497 21.2935C0.724772 21.8742 1.0792 22.3921 1.54393 22.7993C2.00866 23.2066 2.56866 23.4899 3.17203 23.623C3.77541 23.7562 4.40264 23.7349 4.9956 23.5612C5.58856 23.3874 6.12807 23.0668 6.56413 22.629H6.56213Z" fill="#1F74B7"/>
<path d="M37.5391 12.655H40.5091V27.108H37.5391V12.655Z" fill="#151515"/>
<path d="M42.1911 22.159C42.1869 21.1204 42.4911 20.1038 43.0651 19.2382C43.6391 18.3726 44.4571 17.6968 45.4155 17.2965C46.3739 16.8961 47.4296 16.7892 48.4488 16.9893C49.468 17.1894 50.4049 17.6874 51.1408 18.4204C51.8767 19.1533 52.3785 20.0882 52.5826 21.1066C52.7868 22.125 52.6841 23.1811 52.2876 24.1411C51.8911 25.101 51.2186 25.9218 50.3553 26.4992C49.492 27.0767 48.4767 27.385 47.4381 27.385C46.7486 27.3929 46.0645 27.2632 45.4257 27.0036C44.787 26.744 44.2063 26.3597 43.7178 25.8732C43.2293 25.3866 42.8426 24.8075 42.5805 24.1698C42.3184 23.5321 42.186 22.8485 42.1911 22.159ZM49.7151 22.159C49.7027 21.7113 49.5586 21.2772 49.3008 20.9109C49.0431 20.5447 48.6831 20.2625 48.2658 20.0998C47.8486 19.937 47.3926 19.9008 46.9549 19.9958C46.5172 20.0908 46.1172 20.3126 45.805 20.6337C45.4927 20.9547 45.282 21.3607 45.1992 21.8009C45.1164 22.241 45.1652 22.6958 45.3394 23.1084C45.5137 23.521 45.8057 23.873 46.179 24.1205C46.5522 24.368 46.9902 24.5 47.4381 24.5C47.7448 24.5082 48.0499 24.4527 48.3341 24.3371C48.6183 24.2215 48.8755 24.0483 49.0894 23.8284C49.3034 23.6084 49.4694 23.3465 49.5771 23.0592C49.6848 22.7719 49.7317 22.4654 49.7151 22.159Z" fill="#151515"/>
<path d="M64.5221 17.209V26.609C64.5221 29.935 61.9281 31.341 59.2951 31.341C58.368 31.4104 57.4398 31.2231 56.6121 30.7998C55.7845 30.3764 55.0894 29.7333 54.6031 28.941L57.1371 27.476C57.3415 27.889 57.6672 28.2297 58.0705 28.4526C58.4739 28.6754 58.9356 28.7698 59.3941 28.723C59.6871 28.7636 59.9855 28.7378 60.2671 28.6475C60.5488 28.5572 60.8066 28.4047 61.0214 28.2014C61.2362 27.998 61.4025 27.749 61.508 27.4726C61.6136 27.1963 61.6556 26.8998 61.6311 26.605V25.7C61.2833 26.1255 60.8406 26.4636 60.3386 26.6871C59.8365 26.9106 59.289 27.0133 58.7401 26.987C57.4339 26.9458 56.195 26.398 55.2856 25.4594C54.3762 24.5209 53.8677 23.2653 53.8677 21.9585C53.8677 20.6517 54.3762 19.3961 55.2856 18.4576C56.195 17.519 57.4339 16.9712 58.7401 16.93C59.289 16.9037 59.8365 17.0064 60.3386 17.2299C60.8406 17.4534 61.2833 17.7915 61.6311 18.217V17.207L64.5221 17.209ZM61.6321 21.96C61.6521 21.4814 61.5283 21.0077 61.2768 20.6C61.0253 20.1922 60.6575 19.8691 60.2208 19.6722C59.7841 19.4752 59.2984 19.4135 58.8263 19.4949C58.3543 19.5763 57.9173 19.7971 57.5718 20.129C57.2263 20.4608 56.9879 20.8884 56.8875 21.3568C56.7871 21.8252 56.8291 22.313 57.0082 22.7573C57.1873 23.2016 57.4953 23.5822 57.8925 23.85C58.2898 24.1178 58.758 24.2606 59.2371 24.26C59.5491 24.2818 59.8623 24.238 60.1564 24.1314C60.4505 24.0248 60.719 23.8577 60.9446 23.6411C61.1702 23.4244 61.348 23.1629 61.4664 22.8733C61.5848 22.5838 61.6412 22.2727 61.6321 21.96Z" fill="#151515"/>
<path d="M66.2042 22.159C66.2001 21.1204 66.5043 20.1038 67.0783 19.2382C67.6523 18.3726 68.4703 17.6968 69.4287 17.2965C70.3871 16.8961 71.4428 16.7892 72.4619 16.9893C73.4811 17.1894 74.418 17.6874 75.1539 18.4204C75.8899 19.1533 76.3917 20.0882 76.5958 21.1066C76.8 22.125 76.6973 23.1811 76.3008 24.1411C75.9043 25.101 75.2318 25.9218 74.3685 26.4992C73.5052 27.0767 72.4899 27.385 71.4512 27.385C70.7618 27.3929 70.0777 27.2632 69.4389 27.0036C68.8001 26.744 68.2195 26.3597 67.731 25.8732C67.2425 25.3866 66.8558 24.8075 66.5937 24.1698C66.3315 23.5321 66.1991 22.8485 66.2042 22.159ZM73.7282 22.159C73.7159 21.7113 73.5718 21.2772 73.314 20.9109C73.0562 20.5447 72.6962 20.2625 72.279 20.0998C71.8617 19.937 71.4058 19.9008 70.9681 19.9958C70.5304 20.0908 70.1304 20.3126 69.8182 20.6337C69.5059 20.9547 69.2952 21.3607 69.2124 21.8009C69.1296 22.241 69.1784 22.6958 69.3526 23.1084C69.5269 23.521 69.8189 23.873 70.1922 24.1205C70.5654 24.368 71.0034 24.5 71.4512 24.5C71.758 24.5082 72.0631 24.4527 72.3473 24.3371C72.6315 24.2215 72.8887 24.0483 73.1026 23.8284C73.3166 23.6084 73.4826 23.3465 73.5903 23.0592C73.698 22.7719 73.7449 22.4654 73.7282 22.159Z" fill="#151515"/>
<path d="M78.083 14.556C78.083 14.2036 78.1875 13.859 78.3833 13.566C78.5791 13.2729 78.8574 13.0445 79.1831 12.9096C79.5087 12.7748 79.867 12.7395 80.2127 12.8082C80.5583 12.877 80.8759 13.0467 81.1251 13.2959C81.3743 13.5452 81.544 13.8627 81.6128 14.2083C81.6815 14.554 81.6462 14.9123 81.5114 15.2379C81.3765 15.5636 81.1481 15.8419 80.855 16.0377C80.562 16.2335 80.2175 16.338 79.865 16.338C79.3938 16.3333 78.9433 16.1441 78.6101 15.8109C78.2769 15.4777 78.0877 15.0272 78.083 14.556ZM78.383 17.209H81.354V27.109H78.379L78.383 17.209Z" fill="#151515"/>
<path d="M94.1783 22.159C94.2127 22.8133 94.1173 23.4679 93.8978 24.0852C93.6782 24.7025 93.3388 25.2703 92.899 25.756C92.4593 26.2416 91.9279 26.6356 91.3353 26.9152C90.7428 27.1947 90.1008 27.3544 89.4463 27.385C88.896 27.415 88.3458 27.3222 87.8357 27.1133C87.3257 26.9043 86.8685 26.5845 86.4973 26.177V31.068H83.5273V17.209H86.4973V18.139C86.8687 17.7318 87.3259 17.4122 87.8359 17.2035C88.346 16.9947 88.8961 16.902 89.4463 16.932C90.1009 16.9625 90.7431 17.1221 91.3357 17.4017C91.9284 17.6813 92.4599 18.0753 92.8997 18.5611C93.3395 19.0469 93.6789 19.6149 93.8983 20.2324C94.1178 20.8498 94.2129 21.5046 94.1783 22.159ZM91.2083 22.159C91.1967 21.6957 91.0487 21.2461 90.7829 20.8664C90.517 20.4868 90.145 20.194 89.7136 20.0248C89.2821 19.8555 88.8103 19.8172 88.3572 19.9148C87.9041 20.0123 87.4899 20.2413 87.1663 20.5731C86.8427 20.905 86.6242 21.3249 86.5381 21.7803C86.452 22.2357 86.5021 22.7063 86.6822 23.1334C86.8623 23.5605 87.1643 23.9249 87.5505 24.1812C87.9367 24.4374 88.3899 24.5741 88.8533 24.574C89.1715 24.5882 89.4891 24.5349 89.7853 24.4177C90.0814 24.3006 90.3495 24.1221 90.5719 23.8941C90.7942 23.666 90.9659 23.3936 91.0756 23.0946C91.1853 22.7956 91.2305 22.4767 91.2083 22.159Z" fill="#151515"/>
<path d="M103.343 24.138C103.343 26.415 101.364 27.385 99.2262 27.385C98.3624 27.4632 97.4949 27.2806 96.736 26.8605C95.9771 26.4405 95.3617 25.8025 94.9692 25.029L97.5422 23.564C97.6463 23.9215 97.8699 24.2326 98.1757 24.4451C98.4814 24.6577 98.8508 24.759 99.2222 24.732C99.9342 24.732 100.291 24.514 100.291 24.119C100.291 23.029 95.4202 23.604 95.4202 20.179C95.4202 18.02 97.2422 16.932 99.3012 16.932C100.075 16.9075 100.842 17.0911 101.521 17.4636C102.2 17.8362 102.766 18.384 103.161 19.05L100.627 20.416C100.516 20.1567 100.331 19.9358 100.095 19.7809C99.8595 19.626 99.5834 19.544 99.3012 19.545C98.7862 19.545 98.4692 19.745 98.4692 20.099C98.4732 21.228 103.343 20.475 103.343 24.138Z" fill="#151515"/>
<path d="M114.192 17.209V27.109H111.222V26.178C110.88 26.5888 110.444 26.9125 109.952 27.1225C109.461 27.3325 108.926 27.4228 108.392 27.386C106.392 27.386 104.692 25.961 104.692 23.286V17.209H107.662V22.851C107.637 23.0868 107.664 23.3252 107.741 23.5495C107.817 23.7739 107.942 23.9789 108.106 24.1502C108.27 24.3215 108.469 24.455 108.69 24.5415C108.911 24.628 109.147 24.6654 109.384 24.651C110.473 24.651 111.225 24.018 111.225 22.612V17.212L114.192 17.209Z" fill="#151515"/>
<path d="M131.222 21.03V27.108H128.252V21.287C128.252 20.297 127.777 19.664 126.827 19.664C125.837 19.664 125.282 20.357 125.282 21.525V27.108H122.313V21.287C122.313 20.297 121.838 19.664 120.887 19.664C119.897 19.664 119.343 20.357 119.343 21.525V27.108H116.373V17.208H119.343V18.118C119.651 17.7143 120.055 17.3941 120.518 17.1868C120.982 16.9794 121.49 16.8915 121.996 16.931C122.504 16.9061 123.01 17.0134 123.465 17.2423C123.919 17.4711 124.306 17.8139 124.589 18.237C124.918 17.7943 125.354 17.4423 125.856 17.2139C126.358 16.9855 126.91 16.8882 127.46 16.931C129.733 16.932 131.222 18.555 131.222 21.03Z" fill="#151515"/>
<path d="M133.734 17.148C134.952 17.148 135.938 16.1612 135.938 14.944C135.938 13.7268 134.952 12.74 133.734 12.74C132.517 12.74 131.53 13.7268 131.53 14.944C131.53 16.1612 132.517 17.148 133.734 17.148Z" fill="#151515"/>
</svg>
